<svg height="20" viewBox="0 0 512 512" width="20" fill="#ffffff" xmlns="http://www.w3.org/2000/svg"><g><path d="m448 112v-96a8 8 0 0 0 -8-8h-336a8 8 0 0 0 -8 8v24h-24a8 8 0 0 0 -8 8v32a8 8 0 0 0 8 8h24v48h-24a8 8 0 0 0 -8 8v32a8 8 0 0 0 8 8h24v48h-24a8 8 0 0 0 -8 8v32a8 8 0 0 0 8 8h24v48h-24a8 8 0 0 0 -8 8v32a8 8 0 0 0 8 8h24v48h-24a8 8 0 0 0 -8 8v32a8 8 0 0 0 8 8h24v24a8 8 0 0 0 8 8h316a28.031 28.031 0 0 0 28-28v-56a27.9 27.9 0 0 0 -8.43-20 27.9 27.9 0 0 0 8.43-20v-56a27.9 27.9 0 0 0 -8.43-20 27.9 27.9 0 0 0 8.43-20v-56a27.9 27.9 0 0 0 -8.43-20 27.9 27.9 0 0 0 8.43-20v-56a27.841 27.841 0 0 0 -3.44-13.43 7.993 7.993 0 0 0 3.44-6.57zm-368-40v-16h48v16zm0 96v-16h48v16zm0 96v-16h48v16zm0 96v-16h48v16zm0 96v-16h48v16zm352 20a12.01 12.01 0 0 1 -12 12h-4v-80h4a12.01 12.01 0 0 1 12 12zm0-96a12.01 12.01 0 0 1 -12 12h-4v-80h4a12.01 12.01 0 0 1 12 12zm0-96a12.01 12.01 0 0 1 -12 12h-4v-80h4a12.01 12.01 0 0 1 12 12zm0-96a12.01 12.01 0 0 1 -12 12h-4v-80h4a12.01 12.01 0 0 1 12 12zm0-84h-24a8 8 0 0 0 -8 8v376h-288v-16h24a8 8 0 0 0 8-8v-32a8 8 0 0 0 -8-8h-24v-48h24a8 8 0 0 0 8-8v-32a8 8 0 0 0 -8-8h-24v-48h24a8 8 0 0 0 8-8v-32a8 8 0 0 0 -8-8h-24v-48h24a8 8 0 0 0 8-8v-32a8 8 0 0 0 -8-8h-24v-48h24a8 8 0 0 0 8-8v-32a8 8 0 0 0 -8-8h-24v-16h320z"/><path d="m352 208h-176a8 8 0 0 0 -8 8v80a8 8 0 0 0 8 8h176a8 8 0 0 0 8-8v-80a8 8 0 0 0 -8-8zm-8 80h-160v-64h160z"/></g></svg>