<svg id="Capa_1" enable-background="new 0 0 512.004 512.004"  viewBox="0 0 512.004 512.004" fill="#333333"  xmlns="http://www.w3.org/2000/svg"><g><path d="m103.907 475.697c17.597 13.094 39.765 20.306 62.422 20.306h87.907c47.377-.001 82.816-43.349 73.542-89.71l-6.9-34.497c7.106 2.716 14.773 4.207 22.72 4.207h8.708l16.766 83.826c4.192 20.961 22.75 36.174 44.126 36.174h83.802c8.284 0 15-6.716 15-15s-6.716-15-15-15h-15v-90h15c8.284 0 15-6.716 15-15s-6.716-15-15-15h-120.1l-16.108-80.533c21.806-10.836 138.659-68.934 142.886-71.035 7.418-3.688 10.442-12.691 6.754-20.109s-12.689-10.443-20.109-6.754l-.163.081c-43.905-98.521-148.522-163.576-265.118-149.821-123.514 14.573-225.379 120.943-225.041 253.209.207 80.641 38.925 156.3 103.906 204.656zm348.103-99.695v90h-38.811c-7.125 0-13.312-5.071-14.709-12.058l-15.589-77.942zm-105.704-30h-2.708c-16.153 0-30.177-11.496-33.347-27.335 0 0-.001-.003-.001-.003-2.999-14.996 4.46-30.247 18.108-37.071l4.606-2.29zm-117.749-298.376c100.561-11.867 195.162 42.556 234.728 133.386-18.714 9.304-129.619 64.439-148.312 73.733-25.746 12.873-39.784 41.578-34.139 69.804 0 .001 17.527 87.628 17.527 87.628 5.585 27.927-15.812 53.826-44.126 53.826h-87.907c-16.249 0-32.056-5.104-44.512-14.373-57.312-42.649-91.635-110.188-91.816-180.666-.286-112.066 86.93-210.168 198.557-223.338z"/><path d="m196 436.002c24.813 0 45-20.187 45-45s-20.187-45-45-45-45 20.187-45 45 20.187 45 45 45zm0-60c8.271 0 15 6.729 15 15s-6.729 15-15 15-15-6.729-15-15 6.729-15 15-15z"/></g></svg>