<?xml version="1.0" encoding="utf-8"?>
<!-- Generator: Adobe Illustrator 23.1.0, SVG Export Plug-In . SVG Version: 6.00 Build 0)  -->
<svg version="1.1" id="Layer_1" xmlns="http://www.w3.org/2000/svg" xmlns:xlink="http://www.w3.org/1999/xlink" x="0px" y="0px"
	 viewBox="0 0 512 512" style="enable-background:new 0 0 512 512;" xml:space="preserve">
<style type="text/css">
	.st0{fill:#06B9F7;}
	.st1{fill:#FFFFFF;}
	.st2{fill:none;stroke:#FFFFFF;stroke-width:5;stroke-miterlimit:10;}
</style>
<circle class="st0" cx="257" cy="256.7" r="248"/>
<g>
	<g>
		<g>
			<path class="st1" d="M261.4,111.5c-79.7,0-144.5,64.8-144.5,144.5c0,27.7,7.8,54.6,22.7,77.8L120.3,388c-0.9,2.5-0.3,5.3,1.6,7.1
				c1.9,1.9,4.7,2.5,7.1,1.6l54.1-19.3c23.3,15.1,50.3,23,78.3,23c79.7,0,144.5-64.8,144.5-144.5S341.1,111.5,261.4,111.5
				L261.4,111.5z M261.4,386.8c-26.4,0-51.8-7.8-73.5-22.6c-1.2-0.8-2.5-1.2-3.9-1.2c-0.8,0-1.6,0.1-2.3,0.4L138,379l15.6-43.8
				c0.7-2.1,0.4-4.3-0.8-6.1c-14.6-21.6-22.3-46.9-22.3-73c0-72.1,58.7-130.8,130.8-130.8S392.2,183.9,392.2,256
				S333.5,386.8,261.4,386.8L261.4,386.8z"/>
		</g>
	</g>
</g>
<circle class="st2" cx="214.7" cy="249.7" r="15"/>
<circle class="st2" cx="261.4" cy="249.7" r="15"/>
<circle class="st2" cx="308.1" cy="249.7" r="15"/>
</svg>
